# xmcd CD database file
#
# Track frame offsets:
#	150
#	18408
#	53716
#	68465
#	116899
#	129667
#	142456
#	158355
#	169339
#	200457
#	213472
#
# Disc length: 3076 seconds
#
# Revision: 0
# Processed by: cddbd v1.5.2PL0 Copyright (c) Steve Scherf et al.
# Submitted via: CDex 1.50Beta3
#
DISCID=a10c020b
DTITLE=Charles Mingus - Mysterious Blues [CD6]
DYEAR=1900
DGENRE=Jazz
TTITLE0=Polka Dots and Moonbeams
TTITLE1=Salt Peanuts
TTITLE2=Stormy Weather
TTITLE3=Body and Soul
TTITLE4=Can you Blame me
TTITLE5=Extrasensory Perception
TTITLE6=September Song
TTITLE7=This Can't be Love
TTITLE8=Wee
TTITLE9=Montage
TTITLE10=Old Devil Moon
EXTD=
EXTT0=
EXTT1=
EXTT2=
EXTT3=
EXTT4=
EXTT5=
EXTT6=
EXTT7=
EXTT8=
EXTT9=
EXTT10=
PLAYORDER=
